<svg xmlns="http://www.w3.org/2000/svg" viewBox="0 0 760 470" width="760" height="470" font-family="Arial, Helvetica, sans-serif">
<rect x="0" y="0" width="760" height="470" fill="#ffffff"/>
<text x="380" y="26" text-anchor="middle" font-size="14" font-weight="bold" fill="#000">Average time spent per month on four leisure activities by adults</text>
<text x="380" y="45" text-anchor="middle" font-size="14" font-weight="bold" fill="#000">in one European country, 1995&#8211;2020</text>
<line x1="90" y1="370.0" x2="690" y2="370.0" stroke="#cccccc" stroke-width="1"/>
<text x="80" y="374.0" text-anchor="end" font-size="12" fill="#000">0</text>
<line x1="90" y1="310.0" x2="690" y2="310.0" stroke="#cccccc" stroke-width="1"/>
<text x="80" y="314.0" text-anchor="end" font-size="12" fill="#000">20</text>
<line x1="90" y1="250.0" x2="690" y2="250.0" stroke="#cccccc" stroke-width="1"/>
<text x="80" y="254.0" text-anchor="end" font-size="12" fill="#000">40</text>
<line x1="90" y1="190.0" x2="690" y2="190.0" stroke="#cccccc" stroke-width="1"/>
<text x="80" y="194.0" text-anchor="end" font-size="12" fill="#000">60</text>
<line x1="90" y1="130.0" x2="690" y2="130.0" stroke="#cccccc" stroke-width="1"/>
<text x="80" y="134.0" text-anchor="end" font-size="12" fill="#000">80</text>
<line x1="90" y1="70.0" x2="690" y2="70.0" stroke="#cccccc" stroke-width="1"/>
<text x="80" y="74.0" text-anchor="end" font-size="12" fill="#000">100</text>
<line x1="90" y1="370" x2="690" y2="370" stroke="#000" stroke-width="1.2"/>
<line x1="90" y1="62" x2="90" y2="370" stroke="#000" stroke-width="1.2"/>
<text x="30" y="220" text-anchor="middle" font-size="12" fill="#000" transform="rotate(-90 30 220)">Hours per month</text>
<line x1="90.0" y1="370" x2="90.0" y2="375" stroke="#000" stroke-width="1"/>
<text x="90.0" y="392" text-anchor="middle" font-size="12" fill="#000">1995</text>
<line x1="204.0" y1="370" x2="204.0" y2="375" stroke="#000" stroke-width="1"/>
<text x="204.0" y="392" text-anchor="middle" font-size="12" fill="#000">2000</text>
<line x1="318.0" y1="370" x2="318.0" y2="375" stroke="#000" stroke-width="1"/>
<text x="318.0" y="392" text-anchor="middle" font-size="12" fill="#000">2005</text>
<line x1="432.0" y1="370" x2="432.0" y2="375" stroke="#000" stroke-width="1"/>
<text x="432.0" y="392" text-anchor="middle" font-size="12" fill="#000">2010</text>
<line x1="546.0" y1="370" x2="546.0" y2="375" stroke="#000" stroke-width="1"/>
<text x="546.0" y="392" text-anchor="middle" font-size="12" fill="#000">2015</text>
<line x1="660.0" y1="370" x2="660.0" y2="375" stroke="#000" stroke-width="1"/>
<text x="660.0" y="392" text-anchor="middle" font-size="12" fill="#000">2020</text>
<polyline points="90.0,184.0 204.0,166.0 318.0,157.0 432.0,172.0 546.0,208.0 660.0,241.0" fill="none" stroke="#1f4e9c" stroke-width="2"/>
<rect x="86.5" y="180.5" width="7" height="7" fill="#1f4e9c"/>
<rect x="200.5" y="162.5" width="7" height="7" fill="#1f4e9c"/>
<rect x="314.5" y="153.5" width="7" height="7" fill="#1f4e9c"/>
<rect x="428.5" y="168.5" width="7" height="7" fill="#1f4e9c"/>
<rect x="542.5" y="204.5" width="7" height="7" fill="#1f4e9c"/>
<rect x="656.5" y="237.5" width="7" height="7" fill="#1f4e9c"/>
<polyline points="90.0,367.0 204.0,343.0 318.0,292.0 432.0,226.0 546.0,157.0 660.0,82.0" fill="none" stroke="#c00000" stroke-width="2"/>
<circle cx="90.0" cy="367.0" r="4" fill="#c00000"/>
<circle cx="204.0" cy="343.0" r="4" fill="#c00000"/>
<circle cx="318.0" cy="292.0" r="4" fill="#c00000"/>
<circle cx="432.0" cy="226.0" r="4" fill="#c00000"/>
<circle cx="546.0" cy="157.0" r="4" fill="#c00000"/>
<circle cx="660.0" cy="82.0" r="4" fill="#c00000"/>
<polyline points="90.0,298.0 204.0,307.0 318.0,322.0 432.0,337.0 546.0,349.0 660.0,358.0" fill="none" stroke="#4a7c1f" stroke-width="2"/>
<polygon points="90.0,293.5 94.0,301.5 86.0,301.5" fill="#4a7c1f"/>
<polygon points="204.0,302.5 208.0,310.5 200.0,310.5" fill="#4a7c1f"/>
<polygon points="318.0,317.5 322.0,325.5 314.0,325.5" fill="#4a7c1f"/>
<polygon points="432.0,332.5 436.0,340.5 428.0,340.5" fill="#4a7c1f"/>
<polygon points="546.0,344.5 550.0,352.5 542.0,352.5" fill="#4a7c1f"/>
<polygon points="660.0,353.5 664.0,361.5 656.0,361.5" fill="#4a7c1f"/>
<polyline points="90.0,346.0 204.0,343.0 318.0,346.0 432.0,352.0 546.0,355.0 660.0,349.0" fill="none" stroke="#7030a0" stroke-width="2"/>
<polygon points="90.0,341.5 94.5,346.0 90.0,350.5 85.5,346.0" fill="#7030a0"/>
<polygon points="204.0,338.5 208.5,343.0 204.0,347.5 199.5,343.0" fill="#7030a0"/>
<polygon points="318.0,341.5 322.5,346.0 318.0,350.5 313.5,346.0" fill="#7030a0"/>
<polygon points="432.0,347.5 436.5,352.0 432.0,356.5 427.5,352.0" fill="#7030a0"/>
<polygon points="546.0,350.5 550.5,355.0 546.0,359.5 541.5,355.0" fill="#7030a0"/>
<polygon points="660.0,344.5 664.5,349.0 660.0,353.5 655.5,349.0" fill="#7030a0"/>
<line x1="95" y1="437" x2="121" y2="437" stroke="#1f4e9c" stroke-width="2"/>
<rect x="104.5" y="433.5" width="7" height="7" fill="#1f4e9c"/>
<text x="129" y="441" font-size="12" fill="#000">Television</text>
<line x1="255" y1="437" x2="281" y2="437" stroke="#c00000" stroke-width="2"/>
<circle cx="268.0" cy="437.0" r="4" fill="#c00000"/>
<text x="289" y="441" font-size="12" fill="#000">Internet</text>
<line x1="415" y1="437" x2="441" y2="437" stroke="#4a7c1f" stroke-width="2"/>
<polygon points="428.0,432.5 432.0,440.5 424.0,440.5" fill="#4a7c1f"/>
<text x="449" y="441" font-size="12" fill="#000">Print media</text>
<line x1="575" y1="437" x2="601" y2="437" stroke="#7030a0" stroke-width="2"/>
<polygon points="588.0,432.5 592.5,437.0 588.0,441.5 583.5,437.0" fill="#7030a0"/>
<text x="609" y="441" font-size="12" fill="#000">Live events</text>
</svg>